<svg xmlns="http://www.w3.org/2000/svg" xmlns:xlink="http://www.w3.org/1999/xlink" width="100" zoomAndPan="magnify" viewBox="0 0 75 74.999997" height="100" preserveAspectRatio="xMidYMid meet" version="1.0"><defs><clipPath id="id1"><path d="M 6 6 L 68 6 L 68 73.171875 L 6 73.171875 Z M 6 6 " clip-rule="nonzero"/></clipPath></defs><g clip-path="url(#id1)"><path fill="rgb(97.24884%, 2.349854%, 39.99939%)" d="M 25.386719 73.179688 L 25.386719 41.914062 C 23.570312 43.988281 21.875 45.726562 20.261719 47.152344 C 18.640625 48.554688 17.398438 49.726562 15.730469 50.398438 C 14 51.070312 11.59375 51.710938 10.140625 51.101562 C 8.691406 50.4375 7.765625 49.203125 7.125 46.566406 C 6.492188 43.882812 6.367188 38.636719 6.304688 35.289062 C 6.207031 31.921875 5.558594 28.351562 6.652344 26.691406 C 7.757812 25.039062 11.609375 24.734375 12.820312 25.527344 C 13.992188 26.328125 13.53125 28.957031 13.753906 31.457031 C 13.953125 33.964844 14.070312 36.886719 14.101562 40.402344 C 15.375 39.09375 16.703125 37.804688 18.167969 36.453125 C 19.636719 35.097656 20.910156 33.207031 22.824219 32.390625 C 24.714844 31.574219 27.09375 31.3125 29.453125 31.574219 C 31.808594 31.835938 34.347656 33.847656 36.777344 33.894531 C 39.1875 33.886719 41.625 32.359375 43.765625 31.6875 C 45.847656 31.027344 47.121094 32.566406 49.34375 29.945312 C 51.574219 27.277344 54.886719 19.734375 57.015625 15.886719 C 59.101562 12.007812 60.144531 8.328125 61.902344 6.933594 C 63.65625 5.566406 66.726562 6.347656 67.492188 7.636719 C 68.210938 8.882812 68.425781 9.980469 66.324219 14.492188 C 64.1875 19.035156 57.796875 30.078125 54.925781 34.597656 C 52.046875 39.054688 50.1875 41.25 49.230469 41.222656 L 49.230469 73.179688 C 41.285156 73.179688 33.335938 73.179688 25.386719 73.179688 Z M 25.386719 73.179688 " fill-opacity="1" fill-rule="evenodd"/></g><path fill="rgb(97.24884%, 2.349854%, 39.99939%)" d="M 38.175781 10.40625 C 43.3125 10.40625 47.476562 14.570312 47.476562 19.707031 C 47.476562 24.839844 43.3125 29.007812 38.175781 29.007812 C 33.042969 29.007812 28.875 24.839844 28.875 19.707031 C 28.875 14.570312 33.042969 10.40625 38.175781 10.40625 " fill-opacity="1" fill-rule="evenodd"/><path fill="rgb(97.24884%, 2.349854%, 39.99939%)" d="M 1.304688 27.972656 L 16.539062 27.972656 L 16.539062 29.597656 L 1.304688 29.597656 Z M 1.304688 27.972656 " fill-opacity="1" fill-rule="evenodd"/><path fill="rgb(97.24884%, 2.349854%, 39.99939%)" d="M 17.164062 23.320312 C 16.117188 23.320312 15.257812 24.167969 15.257812 25.21875 L 15.257812 32.113281 C 15.257812 33.160156 16.117188 34.015625 17.164062 34.015625 L 18.015625 34.015625 C 19.066406 34.015625 19.914062 33.160156 19.914062 32.113281 L 19.914062 25.21875 C 19.914062 24.167969 19.066406 23.320312 18.015625 23.320312 Z M 17.164062 23.320312 " fill-opacity="1" fill-rule="evenodd"/><path fill="rgb(97.24884%, 2.349854%, 39.99939%)" d="M 1.929688 23.320312 C 0.878906 23.320312 0.0234375 24.167969 0.0234375 25.21875 L 0.0234375 32.113281 C 0.0234375 33.160156 0.878906 34.015625 1.929688 34.015625 L 2.777344 34.015625 C 3.828125 34.015625 4.675781 33.160156 4.675781 32.113281 L 4.675781 25.21875 C 4.675781 24.167969 3.828125 23.320312 2.777344 23.320312 Z M 1.929688 23.320312 " fill-opacity="1" fill-rule="evenodd"/><path fill="rgb(97.24884%, 2.349854%, 39.99939%)" d="M 56.375 6.355469 L 55.726562 7.851562 L 69.722656 13.875 L 70.371094 12.378906 Z M 56.375 6.355469 " fill-opacity="1" fill-rule="evenodd"/><path fill="rgb(97.24884%, 2.349854%, 39.99939%)" d="M 72.777344 8.351562 C 71.8125 7.941406 70.695312 8.382812 70.277344 9.347656 C 69.375 11.460938 68.464844 13.566406 67.554688 15.679688 C 67.136719 16.640625 67.585938 17.761719 68.550781 18.175781 C 68.804688 18.285156 69.066406 18.398438 69.328125 18.507812 C 70.292969 18.925781 71.414062 18.476562 71.820312 17.511719 C 72.730469 15.40625 73.644531 13.296875 74.554688 11.191406 C 74.972656 10.226562 74.523438 9.109375 73.558594 8.691406 C 73.304688 8.574219 73.042969 8.46875 72.777344 8.351562 Z M 72.777344 8.351562 " fill-opacity="1" fill-rule="evenodd"/><path fill="rgb(97.24884%, 2.349854%, 39.99939%)" d="M 58.785156 2.335938 C 57.820312 1.917969 56.699219 2.359375 56.285156 3.324219 C 55.378906 5.4375 54.46875 7.542969 53.558594 9.65625 C 53.140625 10.617188 53.589844 11.738281 54.554688 12.152344 C 54.808594 12.261719 55.070312 12.378906 55.335938 12.484375 C 56.300781 12.902344 57.417969 12.453125 57.828125 11.5 C 58.738281 9.386719 59.648438 7.273438 60.558594 5.167969 C 60.976562 4.203125 60.527344 3.085938 59.5625 2.667969 C 59.308594 2.558594 59.046875 2.445312 58.785156 2.335938 Z M 58.785156 2.335938 " fill-opacity="1" fill-rule="evenodd"/></svg>